<svg viewBox="0 0 256 256" preserveAspectRatio="xMidYMid meet">
  <g>
    <path fill="currentColor" d="M117.1,144.5c-1.1,0-2-0.9-2-2v-33.7c0-1.1-0.9-2-2-2h-7.5c-1.1,0-2,0.9-2,2v45.2c0,1.1,0.9,2,2,2h44.2c1.1,0,2-0.9,2-2v-7.5c0-1.1-0.9-2-2-2L117.1,144.5z"/>
    <path fill="currentColor" d="M187,63.9c-7-2.8-9-4.5-9-7.6c0-2.4,1.9-5.3,7.1-5.3c4.6,0,8.2,1.8,8.2,1.8c0.4,0.2,0.8,0.3,1.2,0.3c1,0,1.9-0.6,2.3-1.6l1.3-3.3c0.4-1.2-0.2-2.2-1.1-2.6c-2.8-1.2-8.4-2.2-8.5-2.2c-0.1,0-0.4-0.1-0.4-0.4l0-4.7c0-1.4-1.2-2.6-2.6-2.6h-2.3c-1.5,0-2.6,1.2-2.6,2.6v5c0,0.4-0.4,0.5-0.6,0.6c-7,1.7-11.4,6.8-11.4,13.3c0,8.1,6.7,11.8,13.9,14.5c5.8,2.3,8.1,4.6,8.1,7.9c0,3.7-3.3,6.2-8.1,6.2c-4.1,0-9.6-2.6-9.7-2.6c-0.3-0.2-0.7-0.2-1.1-0.2c-1.1,0-2,0.6-2.3,1.6l-1.2,3.3c-0.4,1.2,0.2,2.2,1.1,2.7c3.4,1.8,10,2.8,10.3,2.8c0.1,0,0.5,0.1,0.5,0.5V99c0,1.4,1.2,2.6,2.6,2.6h2.4c1.5,0,2.6-1.2,2.6-2.6v-5.2c0-0.5,0.4-0.5,0.4-0.5c7.5-1.7,12.1-7.2,12.1-14.1C200.1,72.2,196.2,67.6,187,63.9z"/>
    <path fill="currentColor" d="M184,6.8c-34.2,0-62,27.7-62,62s27.7,62,62,62s62-27.7,62-62S218.3,6.8,184,6.8z M184,116.3c-26.3,0-47.6-21.3-47.6-47.6c0-26.3,21.3-47.6,47.6-47.6c26.3,0,47.6,21.3,47.6,47.6C231.6,95,210.3,116.3,184,116.3z"/>
    <path fill="currentColor" d="M189.2,147c-3.2,0-2.5,3.2-2.5,5.3c0,2.6-0.1,4.5-0.4,7.1c-3.9,40.1-37.6,71.4-78.7,71.4c-43.7,0-79.1-35.4-79.1-79.1c0-20.3,7.6-38.7,20.1-52.8C62.8,83.1,83.2,73.1,105,72.6c0.9,0,1-0.6,1-1.3c0-6.2,0.2-9.1,1.6-14.8c0.7-2.4-0.4-2.4-0.6-2.4c-28.9,0-54.3,12.6-72.1,32.5C19.4,103.9,10,126.7,10,151.7c0,53.9,43.7,97.6,97.6,97.6c51.3,0,93.3-39.5,97.3-89.8c0.2-2.6,0.3-4.5,0.3-7.2c0-2.1,0-3.9-0.1-5.7c0-1,0.1-3.5-2.1-2.5C197.2,146.1,195.5,146.5,189.2,147z"/>
  </g>
</svg>
